<?xml version="1.0" encoding="UTF-8" standalone="no"?>
<!-- Created with Inkscape (http://www.inkscape.org/) -->

<svg
   xmlns:dc="http://purl.org/dc/elements/1.1/"
   xmlns:cc="http://creativecommons.org/ns#"
   xmlns:rdf="http://www.w3.org/1999/02/22-rdf-syntax-ns#"
   xmlns:svg="http://www.w3.org/2000/svg"
   xmlns="http://www.w3.org/2000/svg"
   xmlns:sodipodi="http://sodipodi.sourceforge.net/DTD/sodipodi-0.dtd"
   xmlns:inkscape="http://www.inkscape.org/namespaces/inkscape"
   width="689.51929"
   height="636.6546"
   id="svg6639"
   version="1.1"
   inkscape:version="0.48.3.1 r9886"
   sodipodi:docname="combined_graph.svg">
  <defs
     id="defs6641">
    <marker
       inkscape:stockid="Arrow1Lend"
       orient="auto"
       refY="0"
       refX="0"
       id="Arrow1Lend"
       style="overflow:visible">
      <path
         inkscape:connector-curvature="0"
         id="path7220"
         d="M 0,0 5,-5 -12.5,0 5,5 0,0 z"
         style="fill-rule:evenodd;stroke:#000000;stroke-width:1pt"
         transform="matrix(-0.8,0,0,-0.8,-10,0)" />
    </marker>
    <marker
       inkscape:stockid="Arrow1Lend"
       orient="auto"
       refY="0"
       refX="0"
       id="marker9143"
       style="overflow:visible">
      <path
         inkscape:connector-curvature="0"
         id="path9145"
         d="M 0,0 5,-5 -12.5,0 5,5 0,0 z"
         style="fill-rule:evenodd;stroke:#000000;stroke-width:1pt"
         transform="matrix(-0.8,0,0,-0.8,-10,0)" />
    </marker>
    <marker
       inkscape:stockid="Arrow1Lend"
       orient="auto"
       refY="0"
       refX="0"
       id="marker9147"
       style="overflow:visible">
      <path
         inkscape:connector-curvature="0"
         id="path9149"
         d="M 0,0 5,-5 -12.5,0 5,5 0,0 z"
         style="fill-rule:evenodd;stroke:#000000;stroke-width:1pt"
         transform="matrix(-0.8,0,0,-0.8,-10,0)" />
    </marker>
    <marker
       inkscape:stockid="Arrow1Lend"
       orient="auto"
       refY="0"
       refX="0"
       id="marker9151"
       style="overflow:visible">
      <path
         inkscape:connector-curvature="0"
         id="path9153"
         d="M 0,0 5,-5 -12.5,0 5,5 0,0 z"
         style="fill-rule:evenodd;stroke:#000000;stroke-width:1pt"
         transform="matrix(-0.8,0,0,-0.8,-10,0)" />
    </marker>
    <marker
       inkscape:stockid="Arrow1Lend"
       orient="auto"
       refY="0"
       refX="0"
       id="marker9155"
       style="overflow:visible">
      <path
         inkscape:connector-curvature="0"
         id="path9157"
         d="M 0,0 5,-5 -12.5,0 5,5 0,0 z"
         style="fill-rule:evenodd;stroke:#000000;stroke-width:1pt"
         transform="matrix(-0.8,0,0,-0.8,-10,0)" />
    </marker>
    <marker
       inkscape:stockid="Arrow1Lend"
       orient="auto"
       refY="0"
       refX="0"
       id="marker9159"
       style="overflow:visible">
      <path
         inkscape:connector-curvature="0"
         id="path9161"
         d="M 0,0 5,-5 -12.5,0 5,5 0,0 z"
         style="fill-rule:evenodd;stroke:#000000;stroke-width:1pt"
         transform="matrix(-0.8,0,0,-0.8,-10,0)" />
    </marker>
    <marker
       inkscape:stockid="Arrow1Lend"
       orient="auto"
       refY="0"
       refX="0"
       id="marker9163"
       style="overflow:visible">
      <path
         inkscape:connector-curvature="0"
         id="path9165"
         d="M 0,0 5,-5 -12.5,0 5,5 0,0 z"
         style="fill-rule:evenodd;stroke:#000000;stroke-width:1pt"
         transform="matrix(-0.8,0,0,-0.8,-10,0)" />
    </marker>
    <marker
       inkscape:stockid="Arrow1Lend"
       orient="auto"
       refY="0"
       refX="0"
       id="marker9167"
       style="overflow:visible">
      <path
         inkscape:connector-curvature="0"
         id="path9169"
         d="M 0,0 5,-5 -12.5,0 5,5 0,0 z"
         style="fill-rule:evenodd;stroke:#000000;stroke-width:1pt"
         transform="matrix(-0.8,0,0,-0.8,-10,0)" />
    </marker>
    <marker
       inkscape:stockid="Arrow1Lend"
       orient="auto"
       refY="0"
       refX="0"
       id="marker9171"
       style="overflow:visible">
      <path
         inkscape:connector-curvature="0"
         id="path9173"
         d="M 0,0 5,-5 -12.5,0 5,5 0,0 z"
         style="fill-rule:evenodd;stroke:#000000;stroke-width:1pt"
         transform="matrix(-0.8,0,0,-0.8,-10,0)" />
    </marker>
    <marker
       inkscape:stockid="Arrow1Lend"
       orient="auto"
       refY="0"
       refX="0"
       id="marker9175"
       style="overflow:visible">
      <path
         inkscape:connector-curvature="0"
         id="path9177"
         d="M 0,0 5,-5 -12.5,0 5,5 0,0 z"
         style="fill-rule:evenodd;stroke:#000000;stroke-width:1pt"
         transform="matrix(-0.8,0,0,-0.8,-10,0)" />
    </marker>
    <marker
       inkscape:stockid="Arrow1Lend"
       orient="auto"
       refY="0"
       refX="0"
       id="marker9179"
       style="overflow:visible">
      <path
         inkscape:connector-curvature="0"
         id="path9181"
         d="M 0,0 5,-5 -12.5,0 5,5 0,0 z"
         style="fill-rule:evenodd;stroke:#000000;stroke-width:1pt"
         transform="matrix(-0.8,0,0,-0.8,-10,0)" />
    </marker>
    <marker
       inkscape:stockid="Arrow1Lend"
       orient="auto"
       refY="0"
       refX="0"
       id="marker9183"
       style="overflow:visible">
      <path
         inkscape:connector-curvature="0"
         id="path9185"
         d="M 0,0 5,-5 -12.5,0 5,5 0,0 z"
         style="fill-rule:evenodd;stroke:#000000;stroke-width:1pt"
         transform="matrix(-0.8,0,0,-0.8,-10,0)" />
    </marker>
    <marker
       inkscape:stockid="Arrow1Lend"
       orient="auto"
       refY="0"
       refX="0"
       id="marker9187"
       style="overflow:visible">
      <path
         inkscape:connector-curvature="0"
         id="path9189"
         d="M 0,0 5,-5 -12.5,0 5,5 0,0 z"
         style="fill-rule:evenodd;stroke:#000000;stroke-width:1pt"
         transform="matrix(-0.8,0,0,-0.8,-10,0)" />
    </marker>
    <marker
       inkscape:stockid="Arrow1Lend"
       orient="auto"
       refY="0"
       refX="0"
       id="marker9191"
       style="overflow:visible">
      <path
         inkscape:connector-curvature="0"
         id="path9193"
         d="M 0,0 5,-5 -12.5,0 5,5 0,0 z"
         style="fill-rule:evenodd;stroke:#000000;stroke-width:1pt"
         transform="matrix(-0.8,0,0,-0.8,-10,0)" />
    </marker>
    <marker
       inkscape:stockid="Arrow1Lend"
       orient="auto"
       refY="0"
       refX="0"
       id="marker9195"
       style="overflow:visible">
      <path
         inkscape:connector-curvature="0"
         id="path9197"
         d="M 0,0 5,-5 -12.5,0 5,5 0,0 z"
         style="fill-rule:evenodd;stroke:#000000;stroke-width:1pt"
         transform="matrix(-0.8,0,0,-0.8,-10,0)" />
    </marker>
    <marker
       inkscape:stockid="Arrow1Lend"
       orient="auto"
       refY="0"
       refX="0"
       id="marker9199"
       style="overflow:visible">
      <path
         inkscape:connector-curvature="0"
         id="path9201"
         d="M 0,0 5,-5 -12.5,0 5,5 0,0 z"
         style="fill-rule:evenodd;stroke:#000000;stroke-width:1pt"
         transform="matrix(-0.8,0,0,-0.8,-10,0)" />
    </marker>
    <marker
       inkscape:stockid="Arrow1Lend"
       orient="auto"
       refY="0"
       refX="0"
       id="marker9203"
       style="overflow:visible">
      <path
         inkscape:connector-curvature="0"
         id="path9205"
         d="M 0,0 5,-5 -12.5,0 5,5 0,0 z"
         style="fill-rule:evenodd;stroke:#000000;stroke-width:1pt"
         transform="matrix(-0.8,0,0,-0.8,-10,0)" />
    </marker>
    <marker
       inkscape:stockid="Arrow1Lend"
       orient="auto"
       refY="0"
       refX="0"
       id="marker9207"
       style="overflow:visible">
      <path
         inkscape:connector-curvature="0"
         id="path9209"
         d="M 0,0 5,-5 -12.5,0 5,5 0,0 z"
         style="fill-rule:evenodd;stroke:#000000;stroke-width:1pt"
         transform="matrix(-0.8,0,0,-0.8,-10,0)" />
    </marker>
    <marker
       inkscape:stockid="Arrow1Lend"
       orient="auto"
       refY="0"
       refX="0"
       id="marker9211"
       style="overflow:visible">
      <path
         inkscape:connector-curvature="0"
         id="path9213"
         d="M 0,0 5,-5 -12.5,0 5,5 0,0 z"
         style="fill-rule:evenodd;stroke:#000000;stroke-width:1pt"
         transform="matrix(-0.8,0,0,-0.8,-10,0)" />
    </marker>
    <marker
       inkscape:stockid="Arrow1Lend"
       orient="auto"
       refY="0"
       refX="0"
       id="marker9215"
       style="overflow:visible">
      <path
         inkscape:connector-curvature="0"
         id="path9217"
         d="M 0,0 5,-5 -12.5,0 5,5 0,0 z"
         style="fill-rule:evenodd;stroke:#000000;stroke-width:1pt"
         transform="matrix(-0.8,0,0,-0.8,-10,0)" />
    </marker>
    <marker
       inkscape:stockid="Arrow1Lend"
       orient="auto"
       refY="0"
       refX="0"
       id="Arrow1Lend-9"
       style="overflow:visible">
      <path
         inkscape:connector-curvature="0"
         id="path7220-1"
         d="M 0,0 5,-5 -12.5,0 5,5 0,0 z"
         style="fill-rule:evenodd;stroke:#000000;stroke-width:1pt"
         transform="matrix(-0.8,0,0,-0.8,-10,0)" />
    </marker>
    <marker
       inkscape:stockid="Arrow1Lend"
       orient="auto"
       refY="0"
       refX="0"
       id="marker11536"
       style="overflow:visible">
      <path
         inkscape:connector-curvature="0"
         id="path11538"
         d="M 0,0 5,-5 -12.5,0 5,5 0,0 z"
         style="fill-rule:evenodd;stroke:#000000;stroke-width:1pt"
         transform="matrix(-0.8,0,0,-0.8,-10,0)" />
    </marker>
    <marker
       inkscape:stockid="Arrow1Lend"
       orient="auto"
       refY="0"
       refX="0"
       id="marker11540"
       style="overflow:visible">
      <path
         inkscape:connector-curvature="0"
         id="path11542"
         d="M 0,0 5,-5 -12.5,0 5,5 0,0 z"
         style="fill-rule:evenodd;stroke:#000000;stroke-width:1pt"
         transform="matrix(-0.8,0,0,-0.8,-10,0)" />
    </marker>
    <marker
       inkscape:stockid="Arrow1Lend"
       orient="auto"
       refY="0"
       refX="0"
       id="marker11544"
       style="overflow:visible">
      <path
         inkscape:connector-curvature="0"
         id="path11546"
         d="M 0,0 5,-5 -12.5,0 5,5 0,0 z"
         style="fill-rule:evenodd;stroke:#000000;stroke-width:1pt"
         transform="matrix(-0.8,0,0,-0.8,-10,0)" />
    </marker>
    <marker
       inkscape:stockid="DiamondLend"
       orient="auto"
       refY="0"
       refX="0"
       id="DiamondLend"
       style="overflow:visible">
      <path
         inkscape:connector-curvature="0"
         id="path7314"
         d="M 0,-7.0710768 -7.0710894,0 0,7.0710589 7.0710462,0 0,-7.0710768 z"
         style="fill-rule:evenodd;stroke:#000000;stroke-width:1pt"
         transform="matrix(0.8,0,0,0.8,-5.6,0)" />
    </marker>
    <marker
       inkscape:stockid="Arrow1Lend"
       orient="auto"
       refY="0"
       refX="0"
       id="marker11550"
       style="overflow:visible">
      <path
         inkscape:connector-curvature="0"
         id="path11552"
         d="M 0,0 5,-5 -12.5,0 5,5 0,0 z"
         style="fill-rule:evenodd;stroke:#000000;stroke-width:1pt"
         transform="matrix(-0.8,0,0,-0.8,-10,0)" />
    </marker>
    <marker
       inkscape:stockid="Arrow1Lend"
       orient="auto"
       refY="0"
       refX="0"
       id="marker11554"
       style="overflow:visible">
      <path
         inkscape:connector-curvature="0"
         id="path11556"
         d="M 0,0 5,-5 -12.5,0 5,5 0,0 z"
         style="fill-rule:evenodd;stroke:#000000;stroke-width:1pt"
         transform="matrix(-0.8,0,0,-0.8,-10,0)" />
    </marker>
    <marker
       inkscape:stockid="Arrow1Lend"
       orient="auto"
       refY="0"
       refX="0"
       id="marker11558"
       style="overflow:visible">
      <path
         inkscape:connector-curvature="0"
         id="path11560"
         d="M 0,0 5,-5 -12.5,0 5,5 0,0 z"
         style="fill-rule:evenodd;stroke:#000000;stroke-width:1pt"
         transform="matrix(-0.8,0,0,-0.8,-10,0)" />
    </marker>
    <marker
       inkscape:stockid="Arrow1Lend"
       orient="auto"
       refY="0"
       refX="0"
       id="marker11562"
       style="overflow:visible">
      <path
         inkscape:connector-curvature="0"
         id="path11564"
         d="M 0,0 5,-5 -12.5,0 5,5 0,0 z"
         style="fill-rule:evenodd;stroke:#000000;stroke-width:1pt"
         transform="matrix(-0.8,0,0,-0.8,-10,0)" />
    </marker>
    <marker
       inkscape:stockid="Arrow1Lend"
       orient="auto"
       refY="0"
       refX="0"
       id="marker11566"
       style="overflow:visible">
      <path
         inkscape:connector-curvature="0"
         id="path11568"
         d="M 0,0 5,-5 -12.5,0 5,5 0,0 z"
         style="fill-rule:evenodd;stroke:#000000;stroke-width:1pt"
         transform="matrix(-0.8,0,0,-0.8,-10,0)" />
    </marker>
    <marker
       inkscape:stockid="Arrow1Lend"
       orient="auto"
       refY="0"
       refX="0"
       id="marker11570"
       style="overflow:visible">
      <path
         inkscape:connector-curvature="0"
         id="path11572"
         d="M 0,0 5,-5 -12.5,0 5,5 0,0 z"
         style="fill-rule:evenodd;stroke:#000000;stroke-width:1pt"
         transform="matrix(-0.8,0,0,-0.8,-10,0)" />
    </marker>
    <marker
       inkscape:stockid="Arrow1Lend"
       orient="auto"
       refY="0"
       refX="0"
       id="marker11574"
       style="overflow:visible">
      <path
         inkscape:connector-curvature="0"
         id="path11576"
         d="M 0,0 5,-5 -12.5,0 5,5 0,0 z"
         style="fill-rule:evenodd;stroke:#000000;stroke-width:1pt"
         transform="matrix(-0.8,0,0,-0.8,-10,0)" />
    </marker>
    <marker
       inkscape:stockid="Arrow1Lend"
       orient="auto"
       refY="0"
       refX="0"
       id="marker11578"
       style="overflow:visible">
      <path
         inkscape:connector-curvature="0"
         id="path11580"
         d="M 0,0 5,-5 -12.5,0 5,5 0,0 z"
         style="fill-rule:evenodd;stroke:#000000;stroke-width:1pt"
         transform="matrix(-0.8,0,0,-0.8,-10,0)" />
    </marker>
    <marker
       inkscape:stockid="Arrow1Lend"
       orient="auto"
       refY="0"
       refX="0"
       id="marker11582"
       style="overflow:visible">
      <path
         inkscape:connector-curvature="0"
         id="path11584"
         d="M 0,0 5,-5 -12.5,0 5,5 0,0 z"
         style="fill-rule:evenodd;stroke:#000000;stroke-width:1pt"
         transform="matrix(-0.8,0,0,-0.8,-10,0)" />
    </marker>
    <marker
       inkscape:stockid="Arrow1Lend"
       orient="auto"
       refY="0"
       refX="0"
       id="marker11586"
       style="overflow:visible">
      <path
         inkscape:connector-curvature="0"
         id="path11588"
         d="M 0,0 5,-5 -12.5,0 5,5 0,0 z"
         style="fill-rule:evenodd;stroke:#000000;stroke-width:1pt"
         transform="matrix(-0.8,0,0,-0.8,-10,0)" />
    </marker>
    <marker
       inkscape:stockid="Arrow1Lend"
       orient="auto"
       refY="0"
       refX="0"
       id="marker11590"
       style="overflow:visible">
      <path
         inkscape:connector-curvature="0"
         id="path11592"
         d="M 0,0 5,-5 -12.5,0 5,5 0,0 z"
         style="fill-rule:evenodd;stroke:#000000;stroke-width:1pt"
         transform="matrix(-0.8,0,0,-0.8,-10,0)" />
    </marker>
    <marker
       inkscape:stockid="Arrow1Lend"
       orient="auto"
       refY="0"
       refX="0"
       id="marker11594"
       style="overflow:visible">
      <path
         inkscape:connector-curvature="0"
         id="path11596"
         d="M 0,0 5,-5 -12.5,0 5,5 0,0 z"
         style="fill-rule:evenodd;stroke:#000000;stroke-width:1pt"
         transform="matrix(-0.8,0,0,-0.8,-10,0)" />
    </marker>
    <marker
       inkscape:stockid="Arrow1Lend"
       orient="auto"
       refY="0"
       refX="0"
       id="marker11598"
       style="overflow:visible">
      <path
         inkscape:connector-curvature="0"
         id="path11600"
         d="M 0,0 5,-5 -12.5,0 5,5 0,0 z"
         style="fill-rule:evenodd;stroke:#000000;stroke-width:1pt"
         transform="matrix(-0.8,0,0,-0.8,-10,0)" />
    </marker>
    <marker
       inkscape:stockid="Arrow1Lend"
       orient="auto"
       refY="0"
       refX="0"
       id="marker11602"
       style="overflow:visible">
      <path
         inkscape:connector-curvature="0"
         id="path11604"
         d="M 0,0 5,-5 -12.5,0 5,5 0,0 z"
         style="fill-rule:evenodd;stroke:#000000;stroke-width:1pt"
         transform="matrix(-0.8,0,0,-0.8,-10,0)" />
    </marker>
    <marker
       inkscape:stockid="Arrow1Lend"
       orient="auto"
       refY="0"
       refX="0"
       id="marker11606"
       style="overflow:visible">
      <path
         inkscape:connector-curvature="0"
         id="path11608"
         d="M 0,0 5,-5 -12.5,0 5,5 0,0 z"
         style="fill-rule:evenodd;stroke:#000000;stroke-width:1pt"
         transform="matrix(-0.8,0,0,-0.8,-10,0)" />
    </marker>
    <marker
       inkscape:stockid="Arrow1Lend"
       orient="auto"
       refY="0"
       refX="0"
       id="Arrow1Lend-5"
       style="overflow:visible">
      <path
         inkscape:connector-curvature="0"
         id="path7220-2"
         d="M 0,0 5,-5 -12.5,0 5,5 0,0 z"
         style="fill-rule:evenodd;stroke:#000000;stroke-width:1pt"
         transform="matrix(-0.8,0,0,-0.8,-10,0)" />
    </marker>
    <marker
       inkscape:stockid="Arrow1Lend"
       orient="auto"
       refY="0"
       refX="0"
       id="marker14732"
       style="overflow:visible">
      <path
         inkscape:connector-curvature="0"
         id="path14734"
         d="M 0,0 5,-5 -12.5,0 5,5 0,0 z"
         style="fill-rule:evenodd;stroke:#000000;stroke-width:1pt"
         transform="matrix(-0.8,0,0,-0.8,-10,0)" />
    </marker>
    <marker
       inkscape:stockid="Arrow1Lend"
       orient="auto"
       refY="0"
       refX="0"
       id="marker14736"
       style="overflow:visible">
      <path
         inkscape:connector-curvature="0"
         id="path14738"
         d="M 0,0 5,-5 -12.5,0 5,5 0,0 z"
         style="fill-rule:evenodd;stroke:#000000;stroke-width:1pt"
         transform="matrix(-0.8,0,0,-0.8,-10,0)" />
    </marker>
    <marker
       inkscape:stockid="Arrow1Lend"
       orient="auto"
       refY="0"
       refX="0"
       id="marker14740"
       style="overflow:visible">
      <path
         inkscape:connector-curvature="0"
         id="path14742"
         d="M 0,0 5,-5 -12.5,0 5,5 0,0 z"
         style="fill-rule:evenodd;stroke:#000000;stroke-width:1pt"
         transform="matrix(-0.8,0,0,-0.8,-10,0)" />
    </marker>
    <marker
       inkscape:stockid="DiamondLend"
       orient="auto"
       refY="0"
       refX="0"
       id="DiamondLend-7"
       style="overflow:visible">
      <path
         inkscape:connector-curvature="0"
         id="path7314-7"
         d="M 0,-7.0710768 -7.0710894,0 0,7.0710589 7.0710462,0 0,-7.0710768 z"
         style="fill-rule:evenodd;stroke:#000000;stroke-width:1pt"
         transform="matrix(0.8,0,0,0.8,-5.6,0)" />
    </marker>
    <marker
       inkscape:stockid="Arrow1Lend"
       orient="auto"
       refY="0"
       refX="0"
       id="marker14746"
       style="overflow:visible">
      <path
         inkscape:connector-curvature="0"
         id="path14748"
         d="M 0,0 5,-5 -12.5,0 5,5 0,0 z"
         style="fill-rule:evenodd;stroke:#000000;stroke-width:1pt"
         transform="matrix(-0.8,0,0,-0.8,-10,0)" />
    </marker>
    <marker
       inkscape:stockid="Arrow1Lend"
       orient="auto"
       refY="0"
       refX="0"
       id="marker14750"
       style="overflow:visible">
      <path
         inkscape:connector-curvature="0"
         id="path14752"
         d="M 0,0 5,-5 -12.5,0 5,5 0,0 z"
         style="fill-rule:evenodd;stroke:#000000;stroke-width:1pt"
         transform="matrix(-0.8,0,0,-0.8,-10,0)" />
    </marker>
    <marker
       inkscape:stockid="Arrow1Lend"
       orient="auto"
       refY="0"
       refX="0"
       id="marker14754"
       style="overflow:visible">
      <path
         inkscape:connector-curvature="0"
         id="path14756"
         d="M 0,0 5,-5 -12.5,0 5,5 0,0 z"
         style="fill-rule:evenodd;stroke:#000000;stroke-width:1pt"
         transform="matrix(-0.8,0,0,-0.8,-10,0)" />
    </marker>
    <marker
       inkscape:stockid="Arrow1Lend"
       orient="auto"
       refY="0"
       refX="0"
       id="marker14758"
       style="overflow:visible">
      <path
         inkscape:connector-curvature="0"
         id="path14760"
         d="M 0,0 5,-5 -12.5,0 5,5 0,0 z"
         style="fill-rule:evenodd;stroke:#000000;stroke-width:1pt"
         transform="matrix(-0.8,0,0,-0.8,-10,0)" />
    </marker>
    <marker
       inkscape:stockid="Arrow1Lend"
       orient="auto"
       refY="0"
       refX="0"
       id="marker14762"
       style="overflow:visible">
      <path
         inkscape:connector-curvature="0"
         id="path14764"
         d="M 0,0 5,-5 -12.5,0 5,5 0,0 z"
         style="fill-rule:evenodd;stroke:#000000;stroke-width:1pt"
         transform="matrix(-0.8,0,0,-0.8,-10,0)" />
    </marker>
    <marker
       inkscape:stockid="Arrow1Lend"
       orient="auto"
       refY="0"
       refX="0"
       id="marker14766"
       style="overflow:visible">
      <path
         inkscape:connector-curvature="0"
         id="path14768"
         d="M 0,0 5,-5 -12.5,0 5,5 0,0 z"
         style="fill-rule:evenodd;stroke:#000000;stroke-width:1pt"
         transform="matrix(-0.8,0,0,-0.8,-10,0)" />
    </marker>
    <marker
       inkscape:stockid="Arrow1Lend"
       orient="auto"
       refY="0"
       refX="0"
       id="marker14770"
       style="overflow:visible">
      <path
         inkscape:connector-curvature="0"
         id="path14772"
         d="M 0,0 5,-5 -12.5,0 5,5 0,0 z"
         style="fill-rule:evenodd;stroke:#000000;stroke-width:1pt"
         transform="matrix(-0.8,0,0,-0.8,-10,0)" />
    </marker>
    <marker
       inkscape:stockid="Arrow1Lend"
       orient="auto"
       refY="0"
       refX="0"
       id="marker14774"
       style="overflow:visible">
      <path
         inkscape:connector-curvature="0"
         id="path14776"
         d="M 0,0 5,-5 -12.5,0 5,5 0,0 z"
         style="fill-rule:evenodd;stroke:#000000;stroke-width:1pt"
         transform="matrix(-0.8,0,0,-0.8,-10,0)" />
    </marker>
    <marker
       inkscape:stockid="Arrow1Lend"
       orient="auto"
       refY="0"
       refX="0"
       id="marker14778"
       style="overflow:visible">
      <path
         inkscape:connector-curvature="0"
         id="path14780"
         d="M 0,0 5,-5 -12.5,0 5,5 0,0 z"
         style="fill-rule:evenodd;stroke:#000000;stroke-width:1pt"
         transform="matrix(-0.8,0,0,-0.8,-10,0)" />
    </marker>
    <marker
       inkscape:stockid="Arrow1Lend"
       orient="auto"
       refY="0"
       refX="0"
       id="marker14782"
       style="overflow:visible">
      <path
         inkscape:connector-curvature="0"
         id="path14784"
         d="M 0,0 5,-5 -12.5,0 5,5 0,0 z"
         style="fill-rule:evenodd;stroke:#000000;stroke-width:1pt"
         transform="matrix(-0.8,0,0,-0.8,-10,0)" />
    </marker>
    <marker
       inkscape:stockid="Arrow1Lend"
       orient="auto"
       refY="0"
       refX="0"
       id="marker14786"
       style="overflow:visible">
      <path
         inkscape:connector-curvature="0"
         id="path14788"
         d="M 0,0 5,-5 -12.5,0 5,5 0,0 z"
         style="fill-rule:evenodd;stroke:#000000;stroke-width:1pt"
         transform="matrix(-0.8,0,0,-0.8,-10,0)" />
    </marker>
    <marker
       inkscape:stockid="Arrow1Lend"
       orient="auto"
       refY="0"
       refX="0"
       id="marker14790"
       style="overflow:visible">
      <path
         inkscape:connector-curvature="0"
         id="path14792"
         d="M 0,0 5,-5 -12.5,0 5,5 0,0 z"
         style="fill-rule:evenodd;stroke:#000000;stroke-width:1pt"
         transform="matrix(-0.8,0,0,-0.8,-10,0)" />
    </marker>
    <marker
       inkscape:stockid="Arrow1Lend"
       orient="auto"
       refY="0"
       refX="0"
       id="marker14794"
       style="overflow:visible">
      <path
         inkscape:connector-curvature="0"
         id="path14796"
         d="M 0,0 5,-5 -12.5,0 5,5 0,0 z"
         style="fill-rule:evenodd;stroke:#000000;stroke-width:1pt"
         transform="matrix(-0.8,0,0,-0.8,-10,0)" />
    </marker>
    <marker
       inkscape:stockid="DiamondLend"
       orient="auto"
       refY="0"
       refX="0"
       id="marker14798"
       style="overflow:visible">
      <path
         inkscape:connector-curvature="0"
         id="path14800"
         d="M 0,-7.0710768 -7.0710894,0 0,7.0710589 7.0710462,0 0,-7.0710768 z"
         style="fill-rule:evenodd;stroke:#000000;stroke-width:1pt"
         transform="matrix(0.8,0,0,0.8,-5.6,0)" />
    </marker>
    <marker
       inkscape:stockid="Arrow1Lend"
       orient="auto"
       refY="0"
       refX="0"
       id="marker14802"
       style="overflow:visible">
      <path
         inkscape:connector-curvature="0"
         id="path14804"
         d="M 0,0 5,-5 -12.5,0 5,5 0,0 z"
         style="fill-rule:evenodd;stroke:#000000;stroke-width:1pt"
         transform="matrix(-0.8,0,0,-0.8,-10,0)" />
    </marker>
  </defs>
  <sodipodi:namedview
     id="base"
     pagecolor="#ffffff"
     bordercolor="#666666"
     borderopacity="1.0"
     inkscape:pageopacity="0.0"
     inkscape:pageshadow="2"
     inkscape:zoom="0.49497475"
     inkscape:cx="596.35291"
     inkscape:cy="392.16773"
     inkscape:document-units="px"
     inkscape:current-layer="layer1"
     showgrid="false"
     fit-margin-top="0"
     fit-margin-left="0"
     fit-margin-right="0"
     fit-margin-bottom="0"
     inkscape:window-width="873"
     inkscape:window-height="582"
     inkscape:window-x="374"
     inkscape:window-y="234"
     inkscape:window-maximized="0" />
  <metadata
     id="metadata6644">
    <rdf:RDF>
      <cc:Work
         rdf:about="">
        <dc:format>image/svg+xml</dc:format>
        <dc:type
           rdf:resource="http://purl.org/dc/dcmitype/StillImage" />
        <dc:title />
      </cc:Work>
    </rdf:RDF>
  </metadata>
  <g
     inkscape:label="Layer 1"
     inkscape:groupmode="layer"
     id="layer1"
     transform="translate(479.61566,-232.20267)">
    <text
       sodipodi:linespacing="125%"
       id="text6869"
       y="389.9129"
       x="-479.61566"
       style="font-size:40px;font-style:normal;font-weight:normal;line-height:125%;letter-spacing:0px;word-spacing:0px;fill:#000000;fill-opacity:1;stroke:none;font-family:Sans"
       xml:space="preserve"><tspan
         style="font-style:normal;font-variant:normal;font-weight:normal;font-stretch:normal;font-family:Liberation Mono;-inkscape-font-specification:Liberation Mono"
         y="389.9129"
         x="-479.61566"
         id="tspan6871"
         sodipodi:role="line">ACG</tspan></text>
    <path
       inkscape:connector-curvature="0"
       inkscape:connector-type="polyline"
       id="path6847"
       d="m -269.37015,521.21265 0,68.1761"
       style="fill:none;stroke:#000000;stroke-width:1px;stroke-linecap:butt;stroke-linejoin:miter;stroke-opacity:1;marker-end:url(#Arrow1Lend)" />
    <path
       inkscape:connector-curvature="0"
       inkscape:connector-type="polyline"
       id="path6849"
       d="m -269.37015,640.26035 0,68.176"
       style="fill:none;stroke:#000000;stroke-width:1px;stroke-linecap:butt;stroke-linejoin:miter;stroke-opacity:1;marker-mid:none;marker-end:url(#DiamondLend)" />
    <g
       transform="translate(-1582.8082,-1478.8264)"
       id="g6851">
      <text
         sodipodi:linespacing="125%"
         id="text6855"
         y="1868.7394"
         x="1278.438"
         style="font-size:40px;font-style:normal;font-weight:normal;line-height:125%;letter-spacing:0px;word-spacing:0px;fill:#000000;fill-opacity:1;stroke:none;font-family:Sans"
         xml:space="preserve"><tspan
           style="font-style:normal;font-variant:normal;font-weight:normal;font-stretch:normal;font-family:Liberation Mono;-inkscape-font-specification:Liberation Mono"
           y="1868.7394"
           x="1278.438"
           id="tspan6857"
           sodipodi:role="line">CGA</tspan></text>
    </g>
    <g
       transform="translate(-1603.2769,-1609.7789)"
       id="g6859">
      <text
         xml:space="preserve"
         style="font-size:40px;font-style:normal;font-weight:normal;line-height:125%;letter-spacing:0px;word-spacing:0px;fill:#000000;fill-opacity:1;stroke:none;font-family:Sans"
         x="1474.1522"
         y="1868.7394"
         id="text6863"
         sodipodi:linespacing="125%"><tspan
           sodipodi:role="line"
           id="tspan6865"
           x="1474.1522"
           y="1868.7394"
           style="font-style:normal;font-variant:normal;font-weight:normal;font-stretch:normal;font-family:Liberation Mono;-inkscape-font-specification:Liberation Mono">CGT</tspan></text>
    </g>
    <g
       id="g6873"
       transform="translate(-1758.0537,-1359.7788)">
      <text
         xml:space="preserve"
         style="font-size:40px;font-style:normal;font-weight:normal;line-height:125%;letter-spacing:0px;word-spacing:0px;fill:#000000;fill-opacity:1;stroke:none;font-family:Sans"
         x="1278.438"
         y="1868.7394"
         id="text6877"
         sodipodi:linespacing="125%"><tspan
           sodipodi:role="line"
           id="tspan6879"
           x="1278.438"
           y="1868.7394"
           style="font-style:normal;font-variant:normal;font-weight:normal;font-stretch:normal;font-family:Liberation Mono;-inkscape-font-specification:Liberation Mono">TAC</tspan></text>
    </g>
    <g
       transform="translate(-1758.0537,-1240.7312)"
       id="g6881">
      <text
         sodipodi:linespacing="125%"
         id="text6885"
         y="1868.7394"
         x="1278.438"
         style="font-size:40px;font-style:normal;font-weight:normal;line-height:125%;letter-spacing:0px;word-spacing:0px;fill:#000000;fill-opacity:1;stroke:none;font-family:Sans"
         xml:space="preserve"><tspan
           style="font-style:normal;font-variant:normal;font-weight:normal;font-stretch:normal;font-family:Liberation Mono;-inkscape-font-specification:Liberation Mono"
           y="1868.7394"
           x="1278.438"
           id="tspan6887"
           sodipodi:role="line">$TA</tspan></text>
    </g>
    <g
       id="g6889"
       transform="translate(-1758.0537,-1121.6836)">
      <text
         xml:space="preserve"
         style="font-size:40px;font-style:normal;font-weight:normal;line-height:125%;letter-spacing:0px;word-spacing:0px;fill:#000000;fill-opacity:1;stroke:none;font-family:Sans"
         x="1278.438"
         y="1868.7394"
         id="text6893"
         sodipodi:linespacing="125%"><tspan
           sodipodi:role="line"
           id="tspan6895"
           x="1278.438"
           y="1868.7394"
           style="font-style:normal;font-variant:normal;font-weight:normal;font-stretch:normal;font-family:Liberation Mono;-inkscape-font-specification:Liberation Mono">$$T</tspan></text>
    </g>
    <g
       transform="translate(-1758.0537,-1002.636)"
       id="g6897">
      <text
         sodipodi:linespacing="125%"
         id="text6901"
         y="1868.7394"
         x="1278.438"
         style="font-size:40px;font-style:normal;font-weight:normal;line-height:125%;letter-spacing:0px;word-spacing:0px;fill:#000000;fill-opacity:1;stroke:none;font-family:Sans"
         xml:space="preserve"><tspan
           style="font-style:normal;font-variant:normal;font-weight:normal;font-stretch:normal;font-family:Liberation Mono;-inkscape-font-specification:Liberation Mono"
           y="1868.7394"
           x="1278.438"
           id="tspan6903"
           sodipodi:role="line">$$$</tspan></text>
    </g>
    <g
       transform="translate(-1232.3171,-1002.636)"
       id="g6905">
      <text
         sodipodi:linespacing="125%"
         id="text6909"
         y="1868.7394"
         x="1278.438"
         style="font-size:40px;font-style:normal;font-weight:normal;line-height:125%;letter-spacing:0px;word-spacing:0px;fill:#000000;fill-opacity:1;stroke:none;font-family:Sans"
         xml:space="preserve"><tspan
           style="font-style:normal;font-variant:normal;font-weight:normal;font-stretch:normal;font-family:Liberation Mono;-inkscape-font-specification:Liberation Mono"
           y="1868.7394"
           x="1278.438"
           id="tspan6911"
           sodipodi:role="line">$$A</tspan></text>
    </g>
    <g
       id="g6913"
       transform="translate(-1230.8885,-1162.7946)">
      <text
         xml:space="preserve"
         style="font-size:40px;font-style:normal;font-weight:normal;line-height:125%;letter-spacing:0px;word-spacing:0px;fill:#000000;fill-opacity:1;stroke:none;font-family:Sans"
         x="1278.438"
         y="1868.7394"
         id="text6917"
         sodipodi:linespacing="125%"><tspan
           sodipodi:role="line"
           id="tspan6919"
           x="1278.438"
           y="1868.7394"
           style="font-style:normal;font-variant:normal;font-weight:normal;font-stretch:normal;font-family:Liberation Mono;-inkscape-font-specification:Liberation Mono">$AG</tspan></text>
    </g>
    <g
       id="g6921"
       transform="translate(-1232.3171,-1478.8264)">
      <text
         xml:space="preserve"
         style="font-size:40px;font-style:normal;font-weight:normal;line-height:125%;letter-spacing:0px;word-spacing:0px;fill:#000000;fill-opacity:1;stroke:none;font-family:Sans"
         x="1278.438"
         y="1868.7394"
         id="text6925"
         sodipodi:linespacing="125%"><tspan
           sodipodi:role="line"
           id="tspan6927"
           x="1278.438"
           y="1868.7394"
           style="font-style:normal;font-variant:normal;font-weight:normal;font-stretch:normal;font-family:Liberation Mono;-inkscape-font-specification:Liberation Mono">GTC</tspan></text>
    </g>
    <path
       inkscape:connector-curvature="0"
       inkscape:connector-type="polyline"
       id="path6929"
       d="m 81.347747,827.48395 0.9748,-109.2871"
       style="fill:none;stroke:#000000;stroke-width:1px;stroke-linecap:butt;stroke-linejoin:miter;stroke-opacity:1;marker-end:url(#Arrow1Lend)" />
    <path
       inkscape:connector-curvature="0"
       inkscape:connector-type="polyline"
       id="path6931"
       d="m 82.337647,667.32535 -1.005,-120.7158"
       style="fill:none;stroke:#000000;stroke-width:1px;stroke-linecap:butt;stroke-linejoin:miter;stroke-opacity:1;marker-end:url(#Arrow1Lend)" />
    <g
       id="g6933"
       transform="translate(-1407.5627,-1478.8264)">
      <text
         xml:space="preserve"
         style="font-size:40px;font-style:normal;font-weight:normal;line-height:125%;letter-spacing:0px;word-spacing:0px;fill:#000000;fill-opacity:1;stroke:none;font-family:Sans"
         x="1278.438"
         y="1868.7394"
         id="text6937"
         sodipodi:linespacing="125%"><tspan
           sodipodi:role="line"
           id="tspan6939"
           x="1278.438"
           y="1868.7394"
           style="font-style:normal;font-variant:normal;font-weight:normal;font-stretch:normal;font-family:Liberation Mono;-inkscape-font-specification:Liberation Mono">TCG</tspan></text>
    </g>
    <path
       inkscape:connector-curvature="0"
       inkscape:connector-type="polyline"
       id="path6941"
       d="m 33.883047,376.72935 -80.7698,0"
       style="fill:none;stroke:#000000;stroke-width:1px;stroke-linecap:butt;stroke-linejoin:miter;stroke-opacity:1;marker-end:url(#Arrow1Lend)" />
    <path
       inkscape:connector-curvature="0"
       inkscape:connector-type="polyline"
       id="path6943"
       d="m -141.36255,376.72935 -80.7697,0"
       style="fill:none;stroke:#000000;stroke-width:1px;stroke-linecap:butt;stroke-linejoin:miter;stroke-opacity:1;marker-end:url(#Arrow1Lend)" />
    <path
       inkscape:connector-curvature="0"
       inkscape:connector-type="polyline"
       id="path6945"
       d="m -306.41105,470.61435 -101.1637,-68.7225"
       style="fill:none;stroke:#000000;stroke-width:1px;stroke-linecap:butt;stroke-linejoin:miter;stroke-opacity:1;marker-end:url(#Arrow1Lend)" />
    <path
       inkscape:connector-curvature="0"
       inkscape:connector-type="polyline"
       id="path6947"
       d="m -444.61565,827.48395 0,-68.176"
       style="fill:none;stroke:#000000;stroke-width:1px;stroke-linecap:butt;stroke-linejoin:miter;stroke-opacity:1;marker-end:url(#Arrow1Lend)" />
    <path
       inkscape:connector-curvature="0"
       inkscape:connector-type="polyline"
       id="path6949"
       d="m -444.61565,708.43635 0,-68.176"
       style="fill:none;stroke:#000000;stroke-width:1px;stroke-linecap:butt;stroke-linejoin:miter;stroke-opacity:1;marker-mid:none;marker-end:url(#Arrow1Lend)" />
    <path
       inkscape:connector-curvature="0"
       inkscape:connector-type="polyline"
       id="path6951"
       d="m -444.61565,589.38875 0,-68.1761"
       style="fill:none;stroke:#000000;stroke-width:1px;stroke-linecap:butt;stroke-linejoin:miter;stroke-opacity:1;marker-end:url(#Arrow1Lend)" />
    <path
       inkscape:connector-curvature="0"
       inkscape:connector-type="polyline"
       id="path6953"
       d="m -444.61565,470.34115 0,-68.176"
       style="fill:none;stroke:#000000;stroke-width:1px;stroke-linecap:butt;stroke-linejoin:miter;stroke-opacity:1;marker-end:url(#Arrow1Lend)" />
    <path
       inkscape:connector-curvature="0"
       inkscape:connector-type="polyline"
       id="path6955"
       d="m -269.37015,470.84115 0,-0.001"
       style="fill:none;stroke:#000000;stroke-width:1px;stroke-linecap:butt;stroke-linejoin:miter;stroke-opacity:1;display:inline" />
    <path
       inkscape:connector-curvature="0"
       inkscape:connector-type="polyline"
       id="path6957"
       d="m -397.37775,376.72935 80.7697,0"
       style="fill:none;stroke:#000000;stroke-width:1px;stroke-linecap:butt;stroke-linejoin:miter;stroke-opacity:1;marker-end:url(#Arrow1Lend)" />
    <path
       inkscape:connector-curvature="0"
       inkscape:connector-type="polyline"
       id="path6959"
       d="m -397.37775,852.91965 431.260797,0"
       style="fill:none;stroke:#000000;stroke-width:1px;stroke-linecap:butt;stroke-linejoin:miter;stroke-opacity:1;marker-start:none;marker-end:url(#Arrow1Lend)" />
    <g
       id="g6961"
       transform="translate(-1428.0313,-1609.7789)">
      <text
         sodipodi:linespacing="125%"
         id="text6965"
         y="1868.7394"
         x="1474.1522"
         style="font-size:40px;font-style:normal;font-weight:normal;line-height:125%;letter-spacing:0px;word-spacing:0px;fill:#000000;fill-opacity:1;stroke:none;font-family:Sans"
         xml:space="preserve"><tspan
           style="font-style:normal;font-variant:normal;font-weight:normal;font-stretch:normal;font-family:Liberation Mono;-inkscape-font-specification:Liberation Mono"
           y="1868.7394"
           x="1474.1522"
           id="tspan6967"
           sodipodi:role="line">GTA</tspan></text>
    </g>
    <path
       inkscape:connector-curvature="0"
       inkscape:connector-type="polyline"
       id="path6985"
       d="m -398.27195,359.41415 257.8036,-96.3221"
       style="fill:none;stroke:#000000;stroke-width:1px;stroke-linecap:butt;stroke-linejoin:miter;stroke-opacity:1;marker-end:url(#Arrow1Lend)" />
    <path
       inkscape:connector-curvature="0"
       inkscape:connector-type="polyline"
       id="path6987"
       d="m -46.886753,245.77685 80.7698,0"
       style="fill:none;stroke:#000000;stroke-width:1px;stroke-linecap:butt;stroke-linejoin:miter;stroke-opacity:1;marker-end:url(#Arrow1Lend)" />
    <path
       inkscape:connector-curvature="0"
       inkscape:connector-type="polyline"
       id="path6989"
       d="m 128.35875,245.77685 80.7699,0"
       style="fill:none;stroke:#000000;stroke-width:1px;stroke-linecap:butt;stroke-linejoin:miter;stroke-opacity:1;marker-end:url(#DiamondLend)" />
    <g
       transform="translate(-1582.8082,-1359.7788)"
       id="g6991">
      <text
         sodipodi:linespacing="125%"
         id="text6995"
         y="1868.7394"
         x="1278.438"
         style="font-size:40px;font-style:normal;font-weight:normal;line-height:125%;letter-spacing:0px;word-spacing:0px;fill:#000000;fill-opacity:1;stroke:none;font-family:Sans"
         xml:space="preserve"><tspan
           style="font-style:normal;font-variant:normal;font-weight:normal;font-stretch:normal;font-family:Liberation Mono;-inkscape-font-specification:Liberation Mono"
           y="1868.7394"
           x="1278.438"
           id="tspan6997"
           sodipodi:role="line">GAC</tspan></text>
    </g>
    <g
       id="g6999"
       transform="translate(-1582.8082,-1240.7312)">
      <text
         xml:space="preserve"
         style="font-size:40px;font-style:normal;font-weight:normal;line-height:125%;letter-spacing:0px;word-spacing:0px;fill:#000000;fill-opacity:1;stroke:none;font-family:Sans"
         x="1278.438"
         y="1868.7394"
         id="text7003"
         sodipodi:linespacing="125%"><tspan
           sodipodi:role="line"
           id="tspan7005"
           x="1278.438"
           y="1868.7394"
           style="font-style:normal;font-variant:normal;font-weight:normal;font-stretch:normal;font-family:Liberation Mono;-inkscape-font-specification:Liberation Mono">ACT</tspan></text>
    </g>
    <path
       inkscape:connector-curvature="0"
       inkscape:connector-type="polyline"
       id="path7007"
       d="m -94.124653,351.29355 0,-80.0809"
       style="fill:none;stroke:#000000;stroke-width:1px;stroke-linecap:butt;stroke-linejoin:miter;stroke-opacity:1;marker-end:url(#Arrow1Lend)" />
    <path
       inkscape:connector-curvature="0"
       inkscape:connector-type="polyline"
       id="path7009"
       d="m -60.085553,271.21265 107.1673,80.0809"
       style="fill:none;stroke:#000000;stroke-width:1px;stroke-linecap:butt;stroke-linejoin:miter;stroke-opacity:1;marker-end:url(#Arrow1Lend)" />
    <g
       transform="translate(-1232.3171,-1334.382)"
       id="g7013">
      <text
         sodipodi:linespacing="125%"
         id="text7017"
         y="1868.7394"
         x="1278.438"
         style="font-size:40px;font-style:normal;font-weight:normal;line-height:125%;letter-spacing:0px;word-spacing:0px;fill:#000000;fill-opacity:1;stroke:none;font-family:Sans"
         xml:space="preserve"><tspan
           style="font-style:normal;font-variant:normal;font-weight:normal;font-stretch:normal;font-family:Liberation Mono;-inkscape-font-specification:Liberation Mono"
           y="1868.7394"
           x="1278.438"
           id="tspan7019"
           sodipodi:role="line">AGT</tspan></text>
    </g>
    <path
       style="fill:none;stroke:#000000;stroke-width:1px;stroke-linecap:butt;stroke-linejoin:miter;stroke-opacity:1;marker-end:url(#Arrow1Lend)"
       d="m -269.37015,402.16515 0,68.176"
       id="path7023"
       inkscape:connector-type="polyline"
       inkscape:connector-curvature="0" />
    <path
       style="fill:none;stroke:#000000;stroke-width:1px;stroke-linecap:butt;stroke-linejoin:miter;stroke-opacity:1;marker-end:url(#Arrow1Lend);display:inline"
       d="m 81.660347,502.32535 0.3496,-104.0278"
       id="path7027"
       inkscape:connector-type="polyline"
       inkscape:connector-curvature="0" />
  </g>
</svg>
